<?xml version="1.0" encoding="UTF-8"?>
<svg version="1.1" xmlns="http://www.w3.org/2000/svg" width="225" height="225">
<path d="M0 0 C74.25 0 148.5 0 225 0 C225 74.25 225 148.5 225 225 C150.75 225 76.5 225 0 225 C0 150.75 0 76.5 0 0 Z " fill="#FDFDFD" transform="translate(0,0)"/>
<path d="M0 0 C7.26 0 14.52 0 22 0 C22.1744072 7.43396324 22.30071245 14.86670848 22.38452148 22.30224609 C22.41949605 24.82589491 22.46709309 27.34940429 22.52807617 29.87255859 C23.21400202 59.00423301 23.21400202 59.00423301 12.61694336 70.60986328 C8.44403321 74.70751427 5.7484347 76.0838551 0 78 C0 52.26 0 26.52 0 0 Z " fill="#EB394F" transform="translate(126,16)"/>
<path d="M0 0 C2.64 0 5.28 0 8 0 C10.3125 2.3359375 10.3125 2.3359375 12 5.375 C12.5775 6.37273437 13.155 7.37046875 13.75 8.3984375 C15 11 15 11 15 13 C18.467906 9.91741689 20.30364244 6.74463054 22.265625 2.609375 C24 1 24 1 32 1 C32 11.23 32 21.46 32 32 C29.69 32 27.38 32 25 32 C24.67 26.06 24.34 20.12 24 14 C21.69 17.3 19.38 20.6 17 24 C11.95534238 22.31844746 10.56015467 17.49449376 8 13 C7.67 19.27 7.34 25.54 7 32 C4.69 32 2.38 32 0 32 C0 21.44 0 10.88 0 0 Z " fill="#1F1E21" transform="translate(9,119)"/>
<path d="M0 0 C1.98 0 3.96 0 6 0 C6 10.89 6 21.78 6 33 C4.02 33 2.04 33 0 33 C-0.33 32.34 -0.66 31.68 -1 31 C-1.99 31.66 -2.98 32.32 -4 33 C-8.59382919 33.44456411 -10.88256113 33.65588803 -14.875 31.3125 C-18.53288438 27.33186112 -19.61006979 23.53068887 -19.43359375 18.0703125 C-18.58727502 14.02933117 -16.40122954 11.27439943 -13 9 C-9.88402654 8.31639358 -7.11678523 8.32914908 -4 9 C-3.01 9.66 -2.02 10.32 -1 11 C-0.67 7.37 -0.34 3.74 0 0 Z " fill="#1C1B1E" transform="translate(163,118)"/>
<path d="M0 0 C8.91 0 17.82 0 27 0 C22.14272037 8.55618363 16.95457686 16.74827044 11.40917969 24.86816406 C10.10047435 26.78593988 8.79994378 28.70908972 7.5 30.6328125 C6.66974159 31.85448673 5.83903035 33.07585336 5.0078125 34.296875 C4.61933136 34.87169617 4.23085022 35.44651733 3.83059692 36.03875732 C2.91301028 37.37733182 1.96019069 38.69164959 1 40 C0.67 40 0.34 40 0 40 C0 26.8 0 13.6 0 0 Z " fill="#EB394F" transform="translate(77,16)"/>
<path d="M0 0 C0.33 0 0.66 0 1 0 C1 13.86 1 27.72 1 42 C-8.62524799 38.791584 -12.9269997 36.46897521 -19 29 C-4.13444254 5.20484838 -4.13444254 5.20484838 0 0 Z " fill="#EB374E" transform="translate(104,54)"/>
<path d="M0 0 C2.31 0 4.62 0 7 0 C7.33 3.3 7.66 6.6 8 10 C8.66 9.67 9.32 9.34 10 9 C17.07254807 8.42963322 17.07254807 8.42963322 20.2421875 10.37890625 C22.98466032 14.46823794 22.4247828 18.45019531 22.25 23.25 C22.23195313 24.18585938 22.21390625 25.12171875 22.1953125 26.0859375 C22.14825673 28.39167015 22.08253713 30.69530945 22 33 C19.69 33 17.38 33 15 33 C14.67 27.39 14.34 21.78 14 16 C12.02 16 10.04 16 8 16 C7.67 21.61 7.34 27.22 7 33 C4.69 33 2.38 33 0 33 C0 22.11 0 11.22 0 0 Z " fill="#222124" transform="translate(75,118)"/>
<path d="M0 0 C3.07365786 1.80803404 4.43019732 2.86039464 6 6 C6.08308638 7.37548156 6.10736016 8.75485796 6.09765625 10.1328125 C6.09443359 10.93847656 6.09121094 11.74414062 6.08789062 12.57421875 C6.07951172 13.41597656 6.07113281 14.25773438 6.0625 15.125 C6.05798828 15.97449219 6.05347656 16.82398438 6.04882812 17.69921875 C6.03702874 19.79950909 6.01909306 21.8997633 6 24 C2.66666667 24 -0.66666667 24 -4 24 C-5.06734375 24.05220703 -5.06734375 24.05220703 -6.15625 24.10546875 C-6.9296875 24.13253906 -7.703125 24.15960938 -8.5 24.1875 C-9.66015625 24.23970703 -9.66015625 24.23970703 -10.84375 24.29296875 C-13 24 -13 24 -14.75390625 22.73828125 C-16.23901829 20.66657324 -16.43270647 19.53098139 -16.4375 17 C-16.45683594 16.319375 -16.47617187 15.63875 -16.49609375 14.9375 C-16 13 -16 13 -14.33203125 11.26171875 C-11.43686689 9.69532329 -9.52123036 9.69567034 -6.25 9.8125 C-5.26515625 9.83957031 -4.2803125 9.86664063 -3.265625 9.89453125 C-2.51796875 9.92933594 -1.7703125 9.96414062 -1 10 C-1.33 9.01 -1.66 8.02 -2 7 C-4.40545638 5.79727181 -5.94996953 5.89928528 -8.625 5.9375 C-9.44226562 5.94652344 -10.25953125 5.95554688 -11.1015625 5.96484375 C-11.72804688 5.97644531 -12.35453125 5.98804688 -13 6 C-13.33 4.35 -13.66 2.7 -14 1 C-9.82919693 -1.08540153 -4.54271136 -0.45427114 0 0 Z " fill="#222123" transform="translate(63,127)"/>
<path d="M0 0 C1.55654297 -0.07347656 1.55654297 -0.07347656 3.14453125 -0.1484375 C6.1875 0.375 6.1875 0.375 9.0546875 2.28515625 C12.05253895 6.62819745 11.74916 10.04713755 11.5 15.1875 C11.47744141 16.07115234 11.45488281 16.95480469 11.43164062 17.86523438 C11.37297428 20.0358891 11.28329979 22.2056669 11.1875 24.375 C8.1875 24.375 5.1875 24.375 2.1875 24.375 C1.48753906 24.43300781 0.78757813 24.49101562 0.06640625 24.55078125 C-6.1750507 24.91916404 -6.1750507 24.91916404 -9.375 22.1875 C-10.93197758 19.14123951 -11.49883353 17.72087593 -10.8125 14.375 C-9.171875 12.23828125 -9.171875 12.23828125 -6.8125 10.375 C-3.796875 9.984375 -3.796875 9.984375 -0.5625 10.125 C0.51515625 10.16109375 1.5928125 10.1971875 2.703125 10.234375 C3.93289062 10.30398437 3.93289062 10.30398437 5.1875 10.375 C4.8575 9.055 4.5275 7.735 4.1875 6.375 C0.5575 6.375 -3.0725 6.375 -6.8125 6.375 C-7.1425 4.725 -7.4725 3.075 -7.8125 1.375 C-5.14693537 0.04221768 -2.97603002 0.0954091 0 0 Z " fill="#1C1B1E" transform="translate(203.8125,126.625)"/>
<path d="M0 0 C3.33333333 0 6.66666667 0 10 0 C11.98853612 -0.12625626 13.97707974 -0.25274542 15.96484375 -0.390625 C18 0 18 0 20.23828125 1.375 C22.9844569 5.46686261 22.4249297 9.44616121 22.25 14.25 C22.23195312 15.18585938 22.21390625 16.12171875 22.1953125 17.0859375 C22.14825673 19.39167015 22.08253713 21.69530945 22 24 C19.69 24 17.38 24 15 24 C14.67 18.39 14.34 12.78 14 7 C12.02 7 10.04 7 8 7 C7.67 12.61 7.34 18.22 7 24 C4.69 24 2.38 24 0 24 C0 16.08 0 8.16 0 0 Z " fill="#222124" transform="translate(117,127)"/>
<path d="M0 0 C7.26 0 14.52 0 22 0 C22 16.83 22 33.66 22 51 C21.67 51 21.34 51 21 51 C21 34.5 21 18 21 1 C14.73 1 8.46 1 2 1 C2.33 26.08 2.66 51.16 3 77 C1.515 77.495 1.515 77.495 0 78 C0 52.26 0 26.52 0 0 Z " fill="#EC465B" transform="translate(126,16)"/>
<path d="M0 0 C1.98 0 3.96 0 6 0 C6.33 0.99 6.66 1.98 7 3 C7.4125 2.505 7.825 2.01 8.25 1.5 C10 0 10 0 14 0 C14.375 2.75 14.375 2.75 14 6 C13.030625 6.495 12.06125 6.99 11.0625 7.5 C7.67870782 9.71215563 7.67870782 9.71215563 7.37890625 13.359375 C7.1469785 16.91322175 7.00952152 20.43895108 7 24 C4.69 24 2.38 24 0 24 C0 16.08 0 8.16 0 0 Z " fill="#201F21" transform="translate(176,127)"/>
<path d="M0 0 C0.33 2.64 0.66 5.28 1 8 C0.01 8.33 -0.98 8.66 -2 9 C-1.814375 9.639375 -1.62875 10.27875 -1.4375 10.9375 C-1.293125 11.618125 -1.14875 12.29875 -1 13 C-2.56918492 14.56918492 -4.14085159 14.28258943 -6.3125 14.375 C-9.93785481 14.33458999 -10.69190267 14.26300991 -13.5625 11.8125 C-15.11947758 8.76623951 -15.68633353 7.34587593 -15 4 C-11.76382572 -1.70183088 -5.74321172 -0.35647521 0 0 Z " fill="#1D1C1F" transform="translate(208,137)"/>
<path d="M0 0 C2.31 0 4.62 0 7 0 C7 7.92 7 15.84 7 24 C4.69 24 2.38 24 0 24 C0 16.08 0 8.16 0 0 Z " fill="#272628" transform="translate(103,127)"/>
<path d="M0 0 C1.33804688 0.04060547 1.33804688 0.04060547 2.703125 0.08203125 C3.37859375 0.11683594 4.0540625 0.15164062 4.75 0.1875 C4.42 1.1775 4.09 2.1675 3.75 3.1875 C0.6875 4.375 0.6875 4.375 -2.25 5.1875 C-1.92 6.5075 -1.59 7.8275 -1.25 9.1875 C0.73 9.1875 2.71 9.1875 4.75 9.1875 C4.75 9.8475 4.75 10.5075 4.75 11.1875 C5.41 11.1875 6.07 11.1875 6.75 11.1875 C6.42 12.1775 6.09 13.1675 5.75 14.1875 C4.76 14.1875 3.77 14.1875 2.75 14.1875 C2.0384375 14.22230469 1.326875 14.25710937 0.59375 14.29296875 C-0.1796875 14.32003906 -0.953125 14.34710938 -1.75 14.375 C-2.5234375 14.40980469 -3.296875 14.44460937 -4.09375 14.48046875 C-6.25 14.1875 -6.25 14.1875 -8.00390625 12.92578125 C-9.48901829 10.85407324 -9.68270647 9.71848139 -9.6875 7.1875 C-9.70683594 6.506875 -9.72617187 5.82625 -9.74609375 5.125 C-9.25 3.1875 -9.25 3.1875 -7.55078125 1.44921875 C-4.8022873 -0.05801987 -3.11121629 -0.12281117 0 0 Z " fill="#1B1A1E" transform="translate(56.25,136.8125)"/>
<path d="M0 0 C3.41378167 0.66610374 4.55523131 1.67495518 6.5625 4.5 C7.17814756 8.19388534 7.02312609 9.80906087 4.9375 12.9375 C2.5625 14.5 2.5625 14.5 -0.5625 14.4375 C-3.4375 13.5 -3.4375 13.5 -5.4375 10.5 C-5.79239252 7.16401029 -5.75853306 5.14206612 -4.25 2.125 C-2.4375 0.5 -2.4375 0.5 0 0 Z " fill="#F3F3F4" transform="translate(156.4375,131.5)"/>
<path d="M0 0 C3.375 0.9375 3.375 0.9375 5.375 3.9375 C5.375 5.2575 5.375 6.5775 5.375 7.9375 C2.075 7.9375 -1.225 7.9375 -4.625 7.9375 C-3.635 9.4225 -3.635 9.4225 -2.625 10.9375 C0.95857241 11.18765873 0.95857241 11.18765873 4.375 10.9375 C4.045 11.9275 3.715 12.9175 3.375 13.9375 C-4.02756709 14.42291424 -4.02756709 14.42291424 -6.625 12.3125 C-7.92118989 9.234049 -8.10788863 7.24873632 -7.625 3.9375 C-5.31085172 0.32742869 -4.32918251 -0.07464108 0 0 Z " fill="#1B1A1D" transform="translate(114.625,168.0625)"/>
<path d="M0 0 C0.99 0 1.98 0 3 0 C3.07347656 1.37285156 3.07347656 1.37285156 3.1484375 2.7734375 C3.22320312 3.96195313 3.29796875 5.15046875 3.375 6.375 C3.44460937 7.55835938 3.51421875 8.74171875 3.5859375 9.9609375 C3.70217346 13.10562319 3.70217346 13.10562319 6 15 C9.30683466 14.71016731 9.30683466 14.71016731 12 13 C12.23481693 10.81707226 12.41363323 8.62796826 12.5625 6.4375 C12.64628906 5.23996094 12.73007812 4.04242188 12.81640625 2.80859375 C12.87699219 1.88175781 12.93757813 0.95492187 13 0 C13.99 0 14.98 0 16 0 C16.05418326 2.08304538 16.09287551 4.16649768 16.125 6.25 C16.14820312 7.41015625 16.17140625 8.5703125 16.1953125 9.765625 C16.00925052 12.84681133 15.71695953 14.4785909 14 17 C10.82459056 18.58770472 7.45809441 18.41100302 4 18 C1.82523599 16.45661909 1.18167363 15.36334727 0 13 C-0.07092842 10.7927077 -0.08415025 8.58332548 -0.0625 6.375 C-0.05347656 5.18648437 -0.04445312 3.99796875 -0.03515625 2.7734375 C-0.02355469 1.85820312 -0.01195312 0.94296875 0 0 Z " fill="#1C1B1E" transform="translate(48,164)"/>
<path d="M0 0 C0.99 0 1.98 0 3 0 C4.32 2.97 5.64 5.94 7 9 C7.99 6.03 8.98 3.06 10 0 C11.32 0.33 12.64 0.66 14 1 C12.96107339 3.82336539 11.89595999 6.63127133 10.8125 9.4375 C10.52052734 10.23994141 10.22855469 11.04238281 9.92773438 11.86914062 C9.07443909 14.04366732 8.25636545 16.02964705 7 18 C4.26171875 19.03515625 4.26171875 19.03515625 2 19 C1.67 18.01 1.34 17.02 1 16 C2.32 16 3.64 16 5 16 C4.6390625 15.01257813 4.278125 14.02515625 3.90625 13.0078125 C3.43733319 11.71360209 2.96859231 10.41932794 2.5 9.125 C2.14228516 8.14853516 2.14228516 8.14853516 1.77734375 7.15234375 C0 2.2265625 0 2.2265625 0 0 Z " fill="#1F1E20" transform="translate(165,168)"/>
<path d="M0 0 C2.64 0 5.28 0 8 0 C8 0.66 8 1.32 8 2 C6.02 2 4.04 2 2 2 C2 11.57 2 21.14 2 31 C3.32 31 4.64 31 6 31 C6 25.06 6 19.12 6 13 C6.33 13 6.66 13 7 13 C7 19.27 7 25.54 7 32 C4.69 32 2.38 32 0 32 C0 21.44 0 10.88 0 0 Z " fill="#313032" transform="translate(9,119)"/>
<path d="M0 0 C1.32 0.33 2.64 0.66 4 1 C4.33 0.67 4.66 0.34 5 0 C7.4375 -0.1875 7.4375 -0.1875 10 0 C12 2 12 2 12.1953125 4.8203125 C12.16050781 6.45613281 12.16050781 6.45613281 12.125 8.125 C12.10695313 9.22070312 12.08890625 10.31640625 12.0703125 11.4453125 C12.04710938 12.28835937 12.02390625 13.13140625 12 14 C11.01 14 10.02 14 9 14 C8.67 10.7 8.34 7.4 8 4 C6.68 4 5.36 4 4 4 C3.67 7.3 3.34 10.6 3 14 C2.01 14 1.02 14 0 14 C0 9.38 0 4.76 0 0 Z " fill="#19181B" transform="translate(68,168)"/>
<path d="M0 0 C1.4540625 0.0309375 1.4540625 0.0309375 2.9375 0.0625 C3.2675 1.0525 3.5975 2.0425 3.9375 3.0625 C2.2875 3.0625 0.6375 3.0625 -1.0625 3.0625 C-1.0625 3.7225 -1.0625 4.3825 -1.0625 5.0625 C0.9175 6.0525 2.8975 7.0425 4.9375 8.0625 C4.6075 10.0425 4.2775 12.0225 3.9375 14.0625 C-2.1171875 14.2578125 -2.1171875 14.2578125 -4.0625 14.0625 C-4.7225 13.4025 -5.3825 12.7425 -6.0625 12.0625 C-2.77273192 10.96591064 -1.34946233 11.26296862 1.9375 12.0625 C1.9375 11.0725 1.9375 10.0825 1.9375 9.0625 C1.15375 8.93875 0.37 8.815 -0.4375 8.6875 C-3.0625 8.0625 -3.0625 8.0625 -5.0625 6.0625 C-4.33395709 0.0884481 -4.33395709 0.0884481 0 0 Z " fill="#212023" transform="translate(139.0625,167.9375)"/>
<path d="M0 0 C0.99 0 1.98 0 3 0 C3.99 2.64 4.98 5.28 6 8 C8.46278801 5.53721199 8.99771255 3.29323018 10 0 C11.32 0.33 12.64 0.66 14 1 C12.02 5.29 10.04 9.58 8 14 C7.01 14 6.02 14 5 14 C4.16235732 12.04350603 3.33000941 10.08474444 2.5 8.125 C2.0359375 7.03445312 1.571875 5.94390625 1.09375 4.8203125 C0 2 0 2 0 0 Z " fill="#1C1B1E" transform="translate(91,168)"/>
<path d="M0 0 C0.99 0 1.98 0 3 0 C3 1.32 3 2.64 3 4 C4.32 4 5.64 4 7 4 C7 4.99 7 5.98 7 7 C5.68 7 4.36 7 3 7 C3 9.97 3 12.94 3 16 C3.99 16 4.98 16 6 16 C6 16.66 6 17.32 6 18 C4.33388095 18.042721 2.66617115 18.04063832 1 18 C0 17 0 17 -0.09765625 14.71484375 C-0.08025391 13.34005859 -0.08025391 13.34005859 -0.0625 11.9375 C-0.05347656 11.01839844 -0.04445312 10.09929687 -0.03515625 9.15234375 C-0.02355469 8.44207031 -0.01195312 7.73179687 0 7 C-0.66 7 -1.32 7 -2 7 C-2 6.01 -2 5.02 -2 4 C-1.34 4 -0.68 4 0 4 C0 2.68 0 1.36 0 0 Z " fill="#333235" transform="translate(156,164)"/>
<path d="M0 0 C0.33 0.99 0.66 1.98 1 3 C3.97 3 6.94 3 10 3 C10.33 2.34 10.66 1.68 11 1 C11 1.99 11 2.98 11 4 C7.7 4 4.4 4 1 4 C1.99 5.485 1.99 5.485 3 7 C6.58357241 7.25015873 6.58357241 7.25015873 10 7 C9.67 7.99 9.34 8.98 9 10 C1.57690141 10.48676056 1.57690141 10.48676056 -1 8.3125 C-2.13489245 5.6880612 -2.23590819 3.83089822 -2 1 C-1.34 0.67 -0.68 0.34 0 0 Z " fill="#1B1A1D" transform="translate(109,172)"/>
<path d="M0 0 C3.625 0.375 3.625 0.375 7 1 C6.67 2.65 6.34 4.3 6 6 C3.69 6.33 1.38 6.66 -1 7 C-1.625 4.625 -1.625 4.625 -2 2 C-1.34 1.34 -0.68 0.68 0 0 Z " fill="#EBEBEB" transform="translate(202,140)"/>
<path d="M0 0 C1.4540625 0.0309375 1.4540625 0.0309375 2.9375 0.0625 C3.5625 2.4375 3.5625 2.4375 3.9375 5.0625 C1.9375 7.0625 1.9375 7.0625 -0.5625 7.3125 C-3.0625 7.0625 -3.0625 7.0625 -5.0625 5.0625 C-4.45789299 1.07209375 -4.2025713 0.08576676 0 0 Z " fill="#E9E9E9" transform="translate(58.0625,139.9375)"/>
<path d="M0 0 C0.66 0 1.32 0 2 0 C2.33 0.66 2.66 1.32 3 2 C4.32 1.34 5.64 0.68 7 0 C7 0.99 7 1.98 7 3 C6.01 3.66 5.02 4.32 4 5 C3.42006301 7.19454681 3.42006301 7.19454681 3.3125 9.625 C3.21388672 10.85089844 3.21388672 10.85089844 3.11328125 12.1015625 C3.05720703 13.04128906 3.05720703 13.04128906 3 14 C2.01 14 1.02 14 0 14 C0 9.38 0 4.76 0 0 Z " fill="#242427" transform="translate(124,168)"/>
<path d="M0 0 C0.99 0 1.98 0 3 0 C3 4.62 3 9.24 3 14 C2.01 14 1.02 14 0 14 C0 9.38 0 4.76 0 0 Z " fill="#222223" transform="translate(148,168)"/>
<path d="M0 0 C0.99 0 1.98 0 3 0 C3 4.62 3 9.24 3 14 C2.01 14 1.02 14 0 14 C0 9.38 0 4.76 0 0 Z " fill="#323134" transform="translate(85,168)"/>
<path d="M0 0 C2.31 0 4.62 0 7 0 C7 1.98 7 3.96 7 6 C4.69 6 2.38 6 0 6 C0 4.02 0 2.04 0 0 Z " fill="#1C1B1E" transform="translate(103,118)"/>
<path d="M0 0 C0.99 0.33 1.98 0.66 3 1 C2.67 2.98 2.34 4.96 2 7 C-4.0546875 7.1953125 -4.0546875 7.1953125 -6 7 C-6.66 6.34 -7.32 5.68 -8 5 C-4.71023192 3.90341064 -3.28696233 4.20046862 0 5 C-0.2784375 4.0409375 -0.2784375 4.0409375 -0.5625 3.0625 C-0.706875 2.381875 -0.85125 1.70125 -1 1 C-0.67 0.67 -0.34 0.34 0 0 Z " fill="#19181B" transform="translate(141,175)"/>
<path d="M0 0 C0.66 0 1.32 0 2 0 C2.33 2.97 2.66 5.94 3 9 C3.99 9 4.98 9 6 9 C6 9.66 6 10.32 6 11 C4.33388095 11.042721 2.66617115 11.04063832 1 11 C0 10 0 10 -0.09765625 7.71484375 C-0.08605469 6.79832031 -0.07445312 5.88179687 -0.0625 4.9375 C-0.05347656 4.01839844 -0.04445312 3.09929687 -0.03515625 2.15234375 C-0.02355469 1.44207031 -0.01195312 0.73179687 0 0 Z " fill="#0E0E10" transform="translate(156,171)"/>
<path d="M0 0 C1.125 1.6875 1.125 1.6875 2 4 C1.4375 6.6875 1.4375 6.6875 0 9 C-2.625 9.8125 -2.625 9.8125 -5 10 C-5.33 9.01 -5.66 8.02 -6 7 C-4.68 7 -3.36 7 -2 7 C-1.34 4.69 -0.68 2.38 0 0 Z " fill="#272729" transform="translate(172,177)"/>
<path d="M0 0 C3.3 0 6.6 0 10 0 C8.3125 2.0625 8.3125 2.0625 6 4 C3.25 3.75 3.25 3.75 1 3 C0.67 2.01 0.34 1.02 0 0 Z " fill="#E2E2E2" transform="translate(110,176)"/>
<path d="M0 0 C0.33 0.99 0.66 1.98 1 3 C3.97 3 6.94 3 10 3 C10.33 2.34 10.66 1.68 11 1 C11 1.99 11 2.98 11 4 C10.31292969 4.06058594 9.62585938 4.12117187 8.91796875 4.18359375 C7.56638672 4.30927734 7.56638672 4.30927734 6.1875 4.4375 C4.84751953 4.55931641 4.84751953 4.55931641 3.48046875 4.68359375 C0.87256441 4.93489767 0.87256441 4.93489767 -2 6 C-2 4.35 -2 2.7 -2 1 C-1.34 0.67 -0.68 0.34 0 0 Z " fill="#09090B" transform="translate(109,172)"/>
<path d="M0 0 C1.9375 0.3125 1.9375 0.3125 4 1 C4.33 1.99 4.66 2.98 5 4 C2.69 4 0.38 4 -2 4 C-1.34 2.68 -0.68 1.36 0 0 Z " fill="#E4E4E4" transform="translate(112,170)"/>
<path d="M0 0 C2.475 0.495 2.475 0.495 5 1 C4.67 1.99 4.34 2.98 4 4 C3.34 4 2.68 4 2 4 C2 6.97 2 9.94 2 13 C1.67 13 1.34 13 1 13 C0.67 8.71 0.34 4.42 0 0 Z " fill="#1E1D20" transform="translate(68,168)"/>
<path d="M0 0 C0.99 0.99 1.98 1.98 3 3 C2.67 3.99 2.34 4.98 2 6 C-0.97 6 -3.94 6 -7 6 C-7 5.67 -7 5.34 -7 5 C-4.69 5 -2.38 5 0 5 C-0.33 4.01 -0.66 3.02 -1 2 C-0.67 1.34 -0.34 0.68 0 0 Z " fill="#38373A" transform="translate(117,169)"/>
<path d="M0 0 C1.98 0.495 1.98 0.495 4 1 C3.34 2.65 2.68 4.3 2 6 C1.34 6 0.68 6 0 6 C-1 3 -1 3 0 0 Z " fill="#302F32" transform="translate(101,168)"/>
</svg>
